<svg aria-hidden="true" style="position: absolute; width: 0; height: 0; overflow: hidden;" version="1.1" xmlns="http://www.w3.org/2000/svg">
  <defs>
    <symbol id="fact_check" viewBox="0 0 24 24">
      <title>fact_check</title>
      <path d="M20.016 3h-16.031q-0.797 0-1.383 0.586t-0.586 1.43v13.969q0 0.844 0.586 1.43t1.383 0.586h16.031q0.797 0 1.383-0.586t0.586-1.43v-13.969q0-0.844-0.586-1.43t-1.383-0.586zM9.984 17.016h-4.969v-2.016h4.969v2.016zM9.984 12.984h-4.969v-1.969h4.969v1.969zM9.984 9h-4.969v-2.016h4.969v2.016zM14.813 15l-2.813-2.859 1.406-1.406 1.406 1.453 3.188-3.188 1.406 1.406z"></path>
    </symbol>
    <symbol id="user" viewBox="0 0 24 24">
      <title>user</title>
      <path d="M12 14.016q2.531 0 5.273 1.102t2.742 2.883v2.016h-16.031v-2.016q0-1.781 2.742-2.883t5.273-1.102zM12 12q-1.641 0-2.813-1.172t-1.172-2.813 1.172-2.836 2.813-1.195 2.813 1.195 1.172 2.836-1.172 2.813-2.813 1.172z"></path>
    </symbol>
    <symbol id="exit" viewBox="0 0 24 24">
      <title>exit</title>
      <path d="M18.984 6.422l-5.578 5.578 5.578 5.578-1.406 1.406-5.578-5.578-5.578 5.578-1.406-1.406 5.578-5.578-5.578-5.578 1.406-1.406 5.578 5.578 5.578-5.578z"></path>
    </symbol>
    <symbol id="precision_manufactoring" viewBox="0 0 24 24">
      <title>precision_manufactoring</title>
      <path d="M7.453 6.984h9.094l1.781-1.969h-12.656zM21 5.016l-8.016 9v4.969h5.016v2.016h-12v-2.016h5.016v-4.969l-8.016-9v-2.016h18v2.016z"></path>
    </symbol>
    <symbol id="local_fire_department" viewBox="0 0 24 24">
      <title>local_fire_department</title>
      <path d="M11.719 18.984q2.016 0 3.398-1.383t1.383-3.398q0-2.063-0.563-4.031-1.453 1.922-4.641 2.578-2.813 0.609-2.813 3.094 0 1.313 0.938 2.227t2.297 0.914zM13.5 0.656q3 2.438 4.758 5.93t1.758 7.43q0 3.281-2.344 5.625t-5.672 2.344-5.672-2.344-2.344-5.625q0-5.063 3.234-8.906v0.375q0 1.547 1.031 2.625t2.578 1.078q1.5 0 2.461-1.055t0.961-2.648q0-0.938-0.188-2.156t-0.375-1.922z"></path>
    </symbol>
    <symbol id="receipt_long" viewBox="0 0 24 24">
      <title>receipt_long</title>
      <path d="M3 21.984v-19.969l1.5 1.5 1.5-1.5 1.5 1.5 1.5-1.5 1.5 1.5 1.5-1.5 1.5 1.5 1.5-1.5 1.5 1.5 1.5-1.5 1.5 1.5 1.5-1.5v19.969l-1.5-1.5-1.5 1.5-1.5-1.5-1.5 1.5-1.5-1.5-1.5 1.5-1.5-1.5-1.5 1.5-1.5-1.5-1.5 1.5-1.5-1.5zM18 9v-2.016h-12v2.016h12zM18 12.984v-1.969h-12v1.969h12zM18 17.016v-2.016h-12v2.016h12z"></path>
    </symbol>
    <symbol id="forum" viewBox="0 0 24 24">
      <title>forum</title>
      <path d="M17.016 12q0 0.422-0.305 0.703t-0.727 0.281h-9.984l-3.984 4.031v-14.016q0-0.422 0.281-0.703t0.703-0.281h12.984q0.422 0 0.727 0.281t0.305 0.703v9zM21 6q0.422 0 0.703 0.281t0.281 0.703v15l-3.984-3.984h-11.016q-0.422 0-0.703-0.281t-0.281-0.703v-2.016h12.984v-9h2.016z"></path>
    </symbol>
    <symbol id="timelapse" viewBox="0 0 24 24">
      <title>timelapse</title>
      <path d="M12 20.016q3.281 0 5.648-2.367t2.367-5.648-2.367-5.648-5.648-2.367-5.648 2.367-2.367 5.648 2.367 5.648 5.648 2.367zM12 2.016q4.125 0 7.055 2.93t2.93 7.055-2.93 7.055-7.055 2.93-7.055-2.93-2.93-7.055 2.93-7.055 7.055-2.93zM16.219 7.781q0.75 0.75 1.266 1.969t0.516 2.25-0.492 2.25-1.242 1.969q-1.734 1.781-4.219 1.781t-4.266-1.781l4.219-4.219v-6q1.031 0 2.25 0.516t1.969 1.266z"></path>
    </symbol>
    <symbol id="handyman" viewBox="0 0 24 24">
      <title>handyman</title>
      <path d="M21.656 18.188l-5.297-5.297h-0.984l-2.531 2.531v0.984l5.297 5.297q0.281 0.281 0.703 0.281t0.703-0.281l2.109-2.109q0.328-0.281 0.328-0.703t-0.328-0.703zM17.344 10.172l1.406-1.406 2.109 2.156q0.609-0.609 0.797-1.383t0-1.523-0.797-1.359l-3.516-3.516-1.406 1.406v-2.859l-0.703-0.703-3.563 3.563 0.703 0.703h2.859l-1.406 1.406 1.031 1.078-2.859 2.859-4.172-4.125v-1.406l-3-3-2.813 2.813 3 3.047h1.406l4.125 4.125-0.844 0.844h-2.109l-5.297 5.297q-0.281 0.281-0.281 0.703t0.281 0.703l2.109 2.109q0.328 0.281 0.727 0.281t0.68-0.281l5.297-5.297v-2.109l5.156-5.156z"></path>
    </symbol>
  </defs>
</svg>
