<svg xmlns="http://www.w3.org/2000/svg" xmlns:xlink="http://www.w3.org/1999/xlink" xml:space="preserve" width="79.6793" height="79.0625" viewBox="0 0 21.0818 20.9186"><defs><linearGradient id="b"><stop offset="0" stop-color="#76b72a"/><stop offset="1" stop-color="#00953f"/></linearGradient><linearGradient id="a"><stop offset="0" stop-color="#00953f"/><stop offset="1" stop-color="#76b72a"/></linearGradient><linearGradient xlink:href="#a" id="c" x1="52.8716" x2="108.4042" y1="133.2987" y2="133.2987" gradientTransform="matrix(.4 0 0 .4 123.3224 99.1349)" gradientUnits="userSpaceOnUse"/><linearGradient xlink:href="#b" id="d" x1="49.6348" x2="97.8054" y1="122.8169" y2="122.8169" gradientTransform="matrix(.4 0 0 .4 123.4195 99.0531)" gradientUnits="userSpaceOnUse"/></defs><path fill="url(#c)" d="M148.5667 143.4557c-.0185.3695-.0554 1.1082-.0492 1.9331.006.8249.0554 1.736.2218 2.4623.1663.7264.4494 1.2681.8804 1.6989.431.4308 1.0096.7509 1.6498.9047.6401.1537 1.3419.1414 2.0066-.0002.6647-.1416 1.2926-.4124 1.8588-.794.5663-.3817 1.071-.8741 1.5635-1.508.4924-.634.9725-1.4097 1.311-2.173.3387-.7631.5356-1.5141.6526-2.2897.117-.7755.154-1.5758.0863-2.3206-.0677-.7448-.24-1.4342-.4062-2.0251-.1662-.591-.3262-1.0834-.4386-1.3645-.1125-.281-.177-.3502.2418.0624.4188.4126 1.3206 1.3067 2.073 2.3077.7524 1.001 1.3556 2.1091 1.7249 3.1555.3692 1.0465.5046 2.0314.4861 3.01-.0185.9788-.1908 1.9514-.5171 2.9608-.3263 1.0095-.8064 2.056-1.4096 2.9546-.6032.8986-1.3296 1.6496-2.2344 2.339-.9049.6894-1.9882 1.3173-3.3116 1.6867-1.3234.3693-2.8869.4801-4.2165.3571-1.3295-.123-2.4252-.48-3.424-.9509-.9987-.4708-1.9005-1.0556-2.5902-1.6714-.6897-.6158-1.1664-1.2616-1.4235-1.6401-.257-.3786-.294-.4894-.4048-.7049-.1107-.2154-.2954-.5355-.3755-.9664-.0802-.431-.0555-.9727.0122-1.6313.0677-.6587.1785-1.4343.437-2.1239.2585-.6895.6648-1.2928 1.2743-1.8776.6095-.5849 1.422-1.1512 2.1831-1.5275.7611-.3762 1.4695-.5622 1.8207-.636.3513-.074.3436-.0355.3398-.0163-.004.0192-.004.019-.0223.3886z" transform="translate(-141.3492 -135.9429)"/><path fill="url(#d)" d="M142.5104 150.8938c-.3656-1.2971-.7312-2.5941-.914-4.2525-.1829-1.6584-.1829-3.678-.1959-5.4975-.013-1.8194-.039-3.4386-.0476-4.2482-.009-.8097 0-.8097.009-.8097 1.9587-.0348 3.9175-.0696 5.9938-.1045 2.0763-.0348 4.27-.0696 5.6498.009 1.3798.0784 1.9457.27 2.5463.5137.6007.2438 1.2362.5397 1.6603.7846.424.2448.6366.4385.7672.6823.1305.2437.179.5376.2994 1.0186.1203.481.3124 1.1493.4125 1.8414.1.692.1081 1.408.073 2.0053-.0351.5973-.1135 1.0761-.2267 1.57-.1131.494-.261 1.003-.5401 1.6129-.279.6099-.6892 1.3206-1.0738 1.8573-.3846.5366-.7437.8992-1.1027 1.2617.1685-.442.337-.8838.4212-1.4138.0842-.53.0842-1.1481-.042-1.7357-.1262-.5876-.3787-1.1448-.7573-1.6105-.3787-.4658-.8836-.8401-1.3972-1.0795-.5136-.2395-1.036-.344-1.8804-.3613-.8444-.0174-2.011.0522-2.8771.1349-.8662.0827-1.432.1784-2.0986.4113-.6666.2329-1.4337.6028-2.0518 1.0773-.6181.4745-1.0871 1.0534-1.4435 1.6084-.3564.555-.6001 1.086-.7786 1.7476s-.2916 1.4538-.3482 1.9718c-.0566.518-.0566.7616-.0566 1.0054h-.0001z" transform="translate(-141.3492 -135.9429)"/></svg>