<svg xmlns="http://www.w3.org/2000/svg" xmlns:xlink="http://www.w3.org/1999/xlink" xml:space="preserve" width="599.2" height="139.36" viewBox="0 0 158.54 36.87"><defs><linearGradient id="b"><stop offset="0" stop-color="#76b72a"/><stop offset="1" stop-color="#00953f"/></linearGradient><linearGradient id="a"><stop offset="0" stop-color="#00953f"/><stop offset="1" stop-color="#76b72a"/></linearGradient><linearGradient xlink:href="#a" id="c" x1="52.87" x2="108.4" y1="133.3" y2="133.3" gradientTransform="translate(123.32 99.13) scale(.36123)" gradientUnits="userSpaceOnUse"/><linearGradient xlink:href="#b" id="d" x1="49.63" x2="97.81" y1="122.82" y2="122.82" gradientTransform="translate(123.42 99.05) scale(.36123)" gradientUnits="userSpaceOnUse"/><path id="e" d="M450.59 823.88H820.8v269.73H450.59z"/><path id="f" d="M450.59 823.88H820.8v269.73H450.59z"/></defs><path fill="url(#c)" d="M148.57 143.46c-.02.37-.06 1.1-.05 1.93 0 .82.05 1.73.22 2.46.17.73.45 1.27.88 1.7a3.5 3.5 0 0 0 1.65.9 4.6 4.6 0 0 0 2 0 5.3 5.3 0 0 0 1.86-.79 6.79 6.79 0 0 0 1.57-1.5c.5-.64.97-1.42 1.3-2.18a9.84 9.84 0 0 0 .74-4.61 15.28 15.28 0 0 0-.84-3.39c-.1-.28-.17-.35.25.06.41.41 1.32 1.3 2.07 2.31.75 1 1.35 2.1 1.72 3.16a8.4 8.4 0 0 1 .49 3c-.02.98-.2 1.96-.52 2.97-.32 1-.8 2.05-1.4 2.95-.61.9-1.34 1.65-2.24 2.34a9.76 9.76 0 0 1-3.31 1.69c-1.33.37-2.89.48-4.22.35a10.98 10.98 0 0 1-6.01-2.62 8.98 8.98 0 0 1-1.43-1.64c-.25-.38-.3-.49-.4-.7-.11-.22-.3-.54-.38-.97-.08-.43-.05-.97.01-1.63a8.7 8.7 0 0 1 .44-2.13c.26-.69.67-1.29 1.28-1.87a9.23 9.23 0 0 1 2.18-1.53 7.98 7.98 0 0 1 1.82-.64c.35-.07.34-.03.34-.01l-.02.39z" transform="translate(-22.35 -127.43)"/><path fill="url(#d)" d="M142.51 150.9c-.37-1.3-.73-2.6-.91-4.26-.19-1.66-.19-3.68-.2-5.5-.01-1.82-.04-3.43-.05-4.24l.01-.81 6-.1c2.07-.04 4.27-.08 5.65 0 1.38.08 1.94.27 2.54.51.6.25 1.24.54 1.66.79.43.24.64.44.77.68.13.24.18.54.3 1.02s.31 1.15.41 1.84a10.2 10.2 0 0 1-.15 3.58c-.12.49-.26 1-.54 1.6a9.8 9.8 0 0 1-2.18 3.12 4.84 4.84 0 0 0 .38-3.15 3.82 3.82 0 0 0-4.03-3.04c-.85-.02-2.02.05-2.88.13a7.61 7.61 0 0 0-4.15 1.49 6.3 6.3 0 0 0-2.22 3.36c-.18.66-.3 1.45-.35 1.97-.06.52-.06.76-.06 1z" transform="translate(-22.35 -127.43)"/><text xml:space="preserve" fill="#3e4543" stroke-width="1.05" font-family="Clab Personal Use" font-size="29.33" font-weight="400" style="-inkscape-font-specification:&quot;Clab Personal Use, Normal&quot;;font-variant-ligatures:normal;font-variant-caps:normal;font-variant-numeric:normal;font-variant-east-asian:normal;white-space:pre;shape-inside:url(#e)" transform="matrix(1.37675 0 0 1.37675 -621.2 -1140.14)"><tspan x="450.59" y="849.55">sqliqu </tspan></text><text xml:space="preserve" fill="#3e4543" stroke-width="1.05" font-family="Clab Personal Use" font-size="29.33" font-weight="400" style="-inkscape-font-specification:&quot;Clab Personal Use, Normal&quot;;font-variant-ligatures:normal;font-variant-caps:normal;font-variant-numeric:normal;font-variant-east-asian:normal;white-space:pre;shape-inside:url(#f)" transform="matrix(1.37675 0 0 1.37675 -479.33 -1140.2)"><tspan x="450.59" y="849.55">r</tspan></text></svg>